<svg id="Layer_1" data-name="Layer 1" xmlns="http://www.w3.org/2000/svg" viewBox="0 0 488.84 199.32"><defs><style>.cls-1{fill:#ffcb05;}.cls-2{fill:#77787b;}</style></defs><path class="cls-1" d="M466.64,375.49l7.7-8.75c6.65,9.8,15.58,15.05,26.43,15.05,15.05,0,22.75-8.92,22.75-27v-74.2h-44.8v-11.2h57.57v84.88c0,25.9-12.25,38.67-35.7,38.67C486.77,393,474.17,386.69,466.64,375.49Z" transform="translate(-256.05 -233.23)"/><path class="cls-1" d="M551,345.92c0-27.3,20-46.73,46.9-46.73s46.73,19.43,46.73,46.73-19.78,46.9-46.73,46.9S551,373.22,551,345.92Zm81,0c0-21.53-14.53-35.88-34.13-35.88s-34.3,14.35-34.3,35.88,14.7,35.87,34.3,35.87S632,367.44,632,345.92Z" transform="translate(-256.05 -233.23)"/><path class="cls-1" d="M659.49,262.09h12.43V391.94H659.49Z" transform="translate(-256.05 -233.23)"/><path class="cls-1" d="M744.89,386.34c-4.9,4.38-12.25,6.48-19.42,6.48-17.33,0-27-9.8-27-26.78V310.39H682.06v-10.5h16.46V279.77h12.42v20.12h28v10.5h-28v54.95c0,10.85,5.6,16.8,15.93,16.8,5.07,0,10.15-1.57,13.65-4.72Z" transform="translate(-256.05 -233.23)"/><path class="cls-2" d="M353.82,384.94h0A25,25,0,0,0,324.67,391l-20.19-11.7a24.94,24.94,0,0,0-13-31.08h0a24.94,24.94,0,0,0-5.44-1.79l0-23.52a24.94,24.94,0,0,0,5.46-47.07h0a25,25,0,0,0-21,45.28,24.6,24.6,0,0,0,5.52,1.81l0,23.48a24.95,24.95,0,1,0,23.22,41.43l20.4,11.82a25,25,0,0,0,23.64,32.89,25.14,25.14,0,0,0,8.61-1.53,25,25,0,0,0,1.9-46.08Zm-79.11-72.89a15,15,0,0,1,12.58-27.14h0a15,15,0,0,1-12.58,27.14Zm19.86,65.1a14.94,14.94,0,1,1-7.28-19.86h0a15,15,0,0,1,7.28,19.86Zm62.33,36.72A15,15,0,1,1,349.61,394,14.87,14.87,0,0,1,356.9,413.87Z" transform="translate(-256.05 -233.23)"/><path class="cls-2" d="M418.83,342.33l-.07-23.45a25,25,0,1,0-23.83-41l-20.37-11.68a25.08,25.08,0,0,0,1.21-5.72A25,25,0,1,0,348.64,283c.77.07,1.54.11,2.3.11a24.94,24.94,0,0,0,18.56-8.33l20.4,11.69A25,25,0,0,0,408.76,319l.07,23.43a25,25,0,0,0-10.73,5.23,24.95,24.95,0,0,0,13.69,44,22.07,22.07,0,0,0,2.29.11,25,25,0,0,0,4.75-49.45Zm-53-82.78A15,15,0,1,1,336,256.83h0a15,15,0,0,1,14.88-13.6c.45,0,.91,0,1.37.07a14.95,14.95,0,0,1,13.53,16.25Zm36.24,44.5a14.95,14.95,0,1,1,10.13,5.33A14.85,14.85,0,0,1,402.05,304.05ZM429,368.19a15,15,0,1,1-24.46-12.86,14.81,14.81,0,0,1,9.54-3.46c.46,0,.93,0,1.39.06A15,15,0,0,1,429,368.19Z" transform="translate(-256.05 -233.23)"/><circle class="cls-1" cx="318.03" cy="332.75" r="10.05" transform="translate(-384.29 -13.23) rotate(-32.12)"/><circle class="cls-1" cx="332.65" cy="358.13" r="10.05" transform="translate(-399.96 233.52) rotate(-59.95)"/><circle class="cls-1" cx="361.95" cy="358.16" r="10.05" transform="translate(-366.85 -64.27) rotate(-22.89)"/><circle class="cls-1" cx="376.61" cy="332.8" r="10.05" transform="translate(-359.65 247.84) rotate(-58.63)"/><circle class="cls-1" cx="361.99" cy="307.42" r="10.05" transform="translate(-359.21 -21.61) rotate(-28.7)"/><circle class="cls-1" cx="332.61" cy="307.38" r="10.05" transform="translate(-362.8 -35.73) rotate(-28.7)"/></svg>